<?xml version="1.0" encoding="UTF-8" standalone="no"?><!DOCTYPE svg PUBLIC "-//W3C//DTD SVG 1.1//EN" "http://www.w3.org/Graphics/SVG/1.1/DTD/svg11.dtd"><svg width="100%" height="100%" viewBox="0 0 96 96" version="1.1" xmlns="http://www.w3.org/2000/svg" xmlns:xlink="http://www.w3.org/1999/xlink" xml:space="preserve" xmlns:serif="http://www.serif.com/" style="fill-rule:evenodd;clip-rule:evenodd;stroke-linejoin:round;stroke-miterlimit:1.41421;"><g><path d="M80,80l-64,0l0,-64l64,0l0,64Zm-62,-62l0,60l60,0l0,-60l-60,0Z" style="fill:#fff;"/><path d="M80,26.24l0,43.52l-10.24,10.24l-43.52,0l-10.24,-10.24l0,-43.52l10.24,-10.24l43.52,0l10.24,10.24Zm-52.932,-8.24l-9.068,9.068l0,41.864l9.068,9.068l41.864,0l9.068,-9.068l0,-41.864l-9.068,-9.068l-41.864,0Z" style="fill:#fff;"/><path d="M74.251,13.113l0.002,0.113l0.003,0.112l0.005,0.112l0.007,0.112l0.008,0.111l0.009,0.111l0.01,0.11l0.012,0.11l0.013,0.11l0.015,0.109l0.016,0.109l0.017,0.108l0.019,0.108l0.02,0.108l0.021,0.107l0.022,0.106l0.024,0.106l0.025,0.106l0.027,0.105l0.027,0.104l0.029,0.104l0.03,0.104l0.032,0.103l0.032,0.102l0.034,0.102l0.035,0.101l0.036,0.101l0.038,0.1l0.038,0.1l0.04,0.099l0.041,0.099l0.042,0.097l0.043,0.098l0.045,0.096l0.045,0.096l0.047,0.095l0.048,0.095l0.049,0.094l0.05,0.093l0.051,0.093l0.052,0.092l0.053,0.091l0.055,0.091l0.055,0.09l0.056,0.089l0.058,0.088l0.058,0.088l0.06,0.087l0.06,0.086l0.062,0.085l0.062,0.085l0.064,0.084l0.064,0.083l0.066,0.082l0.066,0.081l0.067,0.081l0.069,0.08l0.069,0.079l0.07,0.078l0.071,0.077l0.072,0.077l0.073,0.075l0.074,0.075l0.075,0.074l0.075,0.073l0.077,0.072l0.077,0.071l0.078,0.07l0.079,0.069l0.08,0.069l0.081,0.067l0.081,0.066l0.082,0.066l0.083,0.064l0.084,0.064l0.085,0.062l0.085,0.062l0.086,0.06l0.087,0.06l0.088,0.058l0.088,0.058l0.089,0.056l0.09,0.055l0.091,0.055l0.091,0.053l0.092,0.052l0.093,0.051l0.093,0.05l0.094,0.049l0.095,0.048l0.095,0.047l0.096,0.045l0.096,0.045l0.098,0.043l0.097,0.042l0.099,0.041l0.099,0.04l0.1,0.038l0.1,0.038l0.101,0.036l0.101,0.035l0.102,0.034l0.102,0.032l0.103,0.032l0.104,0.03l0.104,0.029l0.104,0.027l0.105,0.027l0.106,0.025l0.106,0.024l0.106,0.022l0.107,0.021l0.108,0.02l0.108,0.019l0.108,0.017l0.109,0.016l0.109,0.015l0.11,0.013l0.11,0.012l0.11,0.01l0.111,0.009l0.111,0.008l0.112,0.007l0.112,0.005l0.112,0.003l0.113,0.002l0.113,0.001l0,52.5l-0.113,0.001l-0.113,0.002l-0.112,0.003l-0.112,0.005l-0.112,0.007l-0.111,0.008l-0.111,0.009l-0.11,0.01l-0.11,0.012l-0.11,0.013l-0.109,0.015l-0.109,0.016l-0.108,0.017l-0.108,0.019l-0.108,0.02l-0.107,0.021l-0.106,0.022l-0.106,0.024l-0.106,0.025l-0.105,0.027l-0.104,0.027l-0.104,0.029l-0.104,0.03l-0.103,0.032l-0.102,0.032l-0.102,0.034l-0.101,0.035l-0.101,0.036l-0.1,0.038l-0.1,0.038l-0.099,0.04l-0.099,0.041l-0.097,0.042l-0.098,0.043l-0.096,0.045l-0.096,0.045l-0.095,0.047l-0.095,0.048l-0.094,0.049l-0.093,0.05l-0.093,0.051l-0.092,0.052l-0.091,0.053l-0.091,0.055l-0.09,0.055l-0.089,0.056l-0.088,0.058l-0.088,0.058l-0.087,0.06l-0.086,0.06l-0.085,0.062l-0.085,0.062l-0.084,0.064l-0.083,0.064l-0.082,0.066l-0.081,0.066l-0.081,0.067l-0.08,0.069l-0.079,0.069l-0.078,0.07l-0.077,0.071l-0.077,0.072l-0.075,0.073l-0.075,0.074l-0.074,0.075l-0.073,0.075l-0.072,0.077l-0.071,0.077l-0.07,0.078l-0.069,0.079l-0.069,0.08l-0.067,0.081l-0.066,0.081l-0.066,0.082l-0.064,0.083l-0.064,0.084l-0.062,0.085l-0.062,0.085l-0.06,0.086l-0.06,0.087l-0.058,0.088l-0.058,0.088l-0.056,0.089l-0.055,0.09l-0.055,0.091l-0.053,0.091l-0.052,0.092l-0.051,0.093l-0.05,0.093l-0.049,0.094l-0.048,0.095l-0.047,0.095l-0.045,0.096l-0.045,0.096l-0.043,0.098l-0.042,0.097l-0.041,0.099l-0.04,0.099l-0.038,0.1l-0.038,0.1l-0.036,0.101l-0.035,0.101l-0.034,0.102l-0.032,0.102l-0.032,0.103l-0.03,0.104l-0.029,0.104l-0.027,0.104l-0.027,0.105l-0.025,0.106l-0.024,0.106l-0.022,0.106l-0.021,0.107l-0.02,0.108l-0.019,0.108l-0.017,0.108l-0.016,0.109l-0.015,0.109l-0.013,0.11l-0.012,0.11l-0.01,0.11l-0.009,0.111l-0.008,0.111l-0.007,0.112l-0.005,0.112l-0.003,0.112l-0.002,0.113l-0.001,0.113l-52.5,0l-0.001,-0.113l-0.002,-0.113l-0.003,-0.112l-0.005,-0.112l-0.007,-0.112l-0.008,-0.111l-0.009,-0.111l-0.01,-0.11l-0.012,-0.11l-0.013,-0.11l-0.015,-0.109l-0.016,-0.109l-0.017,-0.108l-0.019,-0.108l-0.02,-0.108l-0.021,-0.107l-0.022,-0.106l-0.024,-0.106l-0.025,-0.106l-0.027,-0.105l-0.027,-0.104l-0.029,-0.104l-0.03,-0.104l-0.032,-0.103l-0.032,-0.102l-0.034,-0.102l-0.035,-0.101l-0.036,-0.101l-0.038,-0.1l-0.038,-0.1l-0.04,-0.099l-0.041,-0.099l-0.042,-0.097l-0.043,-0.098l-0.045,-0.096l-0.045,-0.096l-0.047,-0.095l-0.048,-0.095l-0.049,-0.094l-0.05,-0.093l-0.051,-0.093l-0.052,-0.092l-0.053,-0.091l-0.055,-0.091l-0.055,-0.09l-0.056,-0.089l-0.058,-0.088l-0.058,-0.088l-0.06,-0.087l-0.06,-0.086l-0.062,-0.085l-0.062,-0.085l-0.064,-0.084l-0.064,-0.083l-0.066,-0.082l-0.066,-0.081l-0.067,-0.081l-0.069,-0.08l-0.069,-0.079l-0.07,-0.078l-0.071,-0.077l-0.072,-0.077l-0.073,-0.075l-0.074,-0.075l-0.075,-0.074l-0.075,-0.073l-0.077,-0.072l-0.077,-0.071l-0.078,-0.07l-0.079,-0.069l-0.08,-0.069l-0.081,-0.067l-0.081,-0.066l-0.082,-0.066l-0.083,-0.064l-0.084,-0.064l-0.085,-0.062l-0.085,-0.062l-0.086,-0.06l-0.087,-0.06l-0.088,-0.058l-0.088,-0.058l-0.089,-0.056l-0.09,-0.055l-0.091,-0.055l-0.091,-0.053l-0.092,-0.052l-0.093,-0.051l-0.093,-0.05l-0.094,-0.049l-0.095,-0.048l-0.095,-0.047l-0.096,-0.045l-0.096,-0.045l-0.098,-0.043l-0.097,-0.042l-0.099,-0.041l-0.099,-0.04l-0.1,-0.038l-0.1,-0.038l-0.101,-0.036l-0.101,-0.035l-0.102,-0.034l-0.102,-0.032l-0.103,-0.032l-0.104,-0.03l-0.104,-0.029l-0.104,-0.027l-0.105,-0.027l-0.106,-0.025l-0.106,-0.024l-0.106,-0.022l-0.107,-0.021l-0.108,-0.02l-0.108,-0.019l-0.108,-0.017l-0.109,-0.016l-0.109,-0.015l-0.11,-0.013l-0.11,-0.012l-0.11,-0.01l-0.111,-0.009l-0.111,-0.008l-0.112,-0.007l-0.112,-0.005l-0.112,-0.003l-0.113,-0.002l-0.113,-0.001l0,-52.5l0.113,-0.001l0.113,-0.002l0.112,-0.003l0.112,-0.005l0.112,-0.007l0.111,-0.008l0.111,-0.009l0.11,-0.01l0.11,-0.012l0.11,-0.013l0.109,-0.015l0.109,-0.016l0.108,-0.017l0.108,-0.019l0.108,-0.02l0.107,-0.021l0.106,-0.022l0.106,-0.024l0.106,-0.025l0.105,-0.027l0.104,-0.027l0.104,-0.029l0.104,-0.03l0.103,-0.032l0.102,-0.032l0.102,-0.034l0.101,-0.035l0.101,-0.036l0.1,-0.038l0.1,-0.038l0.099,-0.04l0.099,-0.041l0.097,-0.042l0.098,-0.043l0.096,-0.045l0.096,-0.045l0.095,-0.047l0.095,-0.048l0.094,-0.049l0.093,-0.05l0.093,-0.051l0.092,-0.052l0.091,-0.053l0.091,-0.055l0.09,-0.055l0.089,-0.056l0.088,-0.058l0.088,-0.058l0.087,-0.06l0.086,-0.06l0.085,-0.062l0.085,-0.062l0.084,-0.064l0.083,-0.064l0.082,-0.066l0.081,-0.066l0.081,-0.067l0.08,-0.069l0.079,-0.069l0.078,-0.07l0.077,-0.071l0.077,-0.072l0.075,-0.073l0.075,-0.074l0.074,-0.075l0.073,-0.075l0.072,-0.077l0.071,-0.077l0.07,-0.078l0.069,-0.079l0.069,-0.08l0.067,-0.081l0.066,-0.081l0.066,-0.082l0.064,-0.083l0.064,-0.084l0.062,-0.085l0.062,-0.085l0.06,-0.086l0.06,-0.087l0.058,-0.088l0.058,-0.088l0.056,-0.089l0.055,-0.09l0.055,-0.091l0.053,-0.091l0.052,-0.092l0.051,-0.093l0.05,-0.093l0.049,-0.094l0.048,-0.095l0.047,-0.095l0.045,-0.096l0.045,-0.096l0.043,-0.098l0.042,-0.097l0.041,-0.099l0.04,-0.099l0.038,-0.1l0.038,-0.1l0.036,-0.101l0.035,-0.101l0.034,-0.102l0.032,-0.102l0.032,-0.103l0.03,-0.104l0.029,-0.104l0.027,-0.104l0.027,-0.105l0.025,-0.106l0.024,-0.106l0.022,-0.106l0.021,-0.107l0.02,-0.108l0.019,-0.108l0.017,-0.108l0.016,-0.109l0.015,-0.109l0.013,-0.11l0.012,-0.11l0.01,-0.11l0.009,-0.111l0.008,-0.111l0.007,-0.112l0.005,-0.112l0.003,-0.112l0.002,-0.113l0.001,-0.113l52.5,0l0.001,0.113Zm-50.687,1.887l-0.006,0.032l-0.027,0.132l-0.027,0.131l-0.03,0.13l-0.03,0.13l-0.033,0.129l-0.034,0.129l-0.035,0.128l-0.037,0.128l-0.039,0.126l-0.04,0.126l-0.042,0.126l-0.043,0.124l-0.044,0.124l-0.046,0.124l-0.048,0.122l-0.049,0.122l-0.05,0.121l-0.052,0.12l-0.053,0.12l-0.055,0.119l-0.056,0.118l-0.057,0.117l-0.059,0.116l-0.06,0.116l-0.061,0.114l-0.063,0.114l-0.064,0.113l-0.066,0.112l-0.066,0.112l-0.068,0.11l-0.07,0.109l-0.07,0.109l-0.072,0.108l-0.073,0.106l-0.074,0.106l-0.076,0.105l-0.077,0.104l-0.078,0.103l-0.079,0.102l-0.08,0.101l-0.082,0.1l-0.082,0.099l-0.084,0.098l-0.085,0.096l-0.086,0.096l-0.087,0.095l-0.089,0.094l-0.089,0.093l-0.091,0.091l-0.091,0.091l-0.093,0.089l-0.094,0.089l-0.095,0.087l-0.096,0.086l-0.096,0.085l-0.098,0.084l-0.099,0.082l-0.1,0.082l-0.101,0.08l-0.102,0.079l-0.103,0.078l-0.104,0.077l-0.105,0.076l-0.106,0.074l-0.106,0.073l-0.108,0.072l-0.109,0.07l-0.109,0.07l-0.11,0.068l-0.112,0.066l-0.112,0.066l-0.113,0.064l-0.114,0.063l-0.114,0.061l-0.116,0.06l-0.116,0.059l-0.117,0.057l-0.118,0.056l-0.119,0.055l-0.12,0.053l-0.12,0.052l-0.121,0.05l-0.122,0.049l-0.122,0.048l-0.124,0.046l-0.124,0.044l-0.124,0.043l-0.126,0.042l-0.126,0.04l-0.126,0.039l-0.128,0.037l-0.128,0.035l-0.129,0.034l-0.129,0.033l-0.13,0.03l-0.13,0.03l-0.131,0.027l-0.132,0.027l-0.032,0.006l0,48.872l0.032,0.006l0.132,0.027l0.131,0.027l0.13,0.03l0.13,0.03l0.13,0.033l0.128,0.034l0.128,0.035l0.128,0.037l0.126,0.039l0.126,0.04l0.126,0.042l0.124,0.043l0.124,0.044l0.124,0.046l0.122,0.048l0.122,0.049l0.121,0.05l0.12,0.052l0.12,0.053l0.119,0.055l0.118,0.056l0.117,0.057l0.116,0.059l0.116,0.06l0.114,0.061l0.114,0.063l0.113,0.064l0.112,0.066l0.112,0.066l0.11,0.068l0.109,0.07l0.109,0.07l0.108,0.072l0.106,0.073l0.106,0.074l0.105,0.076l0.104,0.077l0.103,0.078l0.102,0.079l0.101,0.08l0.1,0.082l0.099,0.082l0.098,0.084l0.096,0.085l0.096,0.086l0.095,0.087l0.094,0.089l0.093,0.089l0.091,0.091l0.091,0.091l0.089,0.093l0.089,0.094l0.087,0.095l0.086,0.096l0.085,0.096l0.084,0.098l0.082,0.099l0.082,0.1l0.08,0.101l0.079,0.102l0.078,0.103l0.077,0.104l0.076,0.105l0.074,0.106l0.073,0.106l0.072,0.108l0.07,0.109l0.07,0.109l0.068,0.11l0.066,0.112l0.066,0.112l0.064,0.113l0.063,0.114l0.061,0.114l0.06,0.116l0.059,0.116l0.057,0.117l0.056,0.118l0.055,0.119l0.053,0.12l0.052,0.12l0.05,0.121l0.049,0.122l0.048,0.122l0.046,0.124l0.044,0.124l0.043,0.124l0.042,0.126l0.04,0.126l0.039,0.126l0.037,0.128l0.035,0.128l0.034,0.129l0.033,0.129l0.03,0.13l0.03,0.13l0.027,0.131l0.027,0.132l0.006,0.032l48.872,0l0.006,-0.032l0.027,-0.132l0.027,-0.131l0.03,-0.13l0.03,-0.13l0.033,-0.13l0.034,-0.128l0.035,-0.128l0.037,-0.128l0.039,-0.126l0.04,-0.126l0.042,-0.126l0.043,-0.124l0.044,-0.124l0.046,-0.124l0.048,-0.122l0.049,-0.122l0.05,-0.121l0.052,-0.12l0.053,-0.12l0.055,-0.119l0.056,-0.118l0.057,-0.117l0.059,-0.116l0.06,-0.116l0.061,-0.114l0.063,-0.114l0.064,-0.113l0.066,-0.112l0.067,-0.112l0.068,-0.11l0.069,-0.109l0.07,-0.109l0.072,-0.108l0.073,-0.106l0.074,-0.106l0.076,-0.105l0.077,-0.104l0.078,-0.103l0.079,-0.102l0.08,-0.101l0.082,-0.1l0.082,-0.099l0.084,-0.097l0.085,-0.097l0.086,-0.096l0.087,-0.095l0.089,-0.094l0.089,-0.093l0.091,-0.091l0.091,-0.091l0.093,-0.089l0.094,-0.089l0.095,-0.087l0.096,-0.086l0.097,-0.085l0.097,-0.084l0.099,-0.082l0.1,-0.082l0.101,-0.08l0.102,-0.079l0.103,-0.078l0.104,-0.077l0.105,-0.076l0.106,-0.074l0.106,-0.073l0.108,-0.072l0.109,-0.07l0.109,-0.069l0.11,-0.068l0.112,-0.067l0.112,-0.066l0.113,-0.064l0.114,-0.063l0.114,-0.061l0.116,-0.06l0.116,-0.059l0.117,-0.057l0.118,-0.056l0.119,-0.055l0.12,-0.053l0.12,-0.052l0.121,-0.05l0.122,-0.049l0.122,-0.048l0.124,-0.046l0.124,-0.044l0.124,-0.043l0.126,-0.042l0.126,-0.04l0.126,-0.039l0.128,-0.037l0.128,-0.035l0.128,-0.034l0.13,-0.033l0.13,-0.03l0.13,-0.03l0.131,-0.027l0.132,-0.027l0.032,-0.006l0,-48.872l-0.032,-0.006l-0.132,-0.027l-0.131,-0.027l-0.13,-0.03l-0.13,-0.03l-0.129,-0.033l-0.129,-0.034l-0.128,-0.035l-0.128,-0.037l-0.126,-0.039l-0.126,-0.04l-0.126,-0.042l-0.124,-0.043l-0.124,-0.044l-0.124,-0.046l-0.122,-0.048l-0.122,-0.049l-0.121,-0.05l-0.12,-0.052l-0.12,-0.053l-0.119,-0.055l-0.118,-0.056l-0.117,-0.057l-0.116,-0.059l-0.116,-0.06l-0.114,-0.061l-0.114,-0.063l-0.113,-0.064l-0.112,-0.066l-0.112,-0.066l-0.11,-0.068l-0.109,-0.07l-0.109,-0.07l-0.108,-0.072l-0.106,-0.073l-0.106,-0.074l-0.105,-0.076l-0.104,-0.077l-0.103,-0.078l-0.102,-0.079l-0.101,-0.08l-0.1,-0.082l-0.099,-0.082l-0.098,-0.084l-0.096,-0.085l-0.096,-0.086l-0.095,-0.087l-0.094,-0.089l-0.093,-0.089l-0.091,-0.091l-0.091,-0.091l-0.089,-0.093l-0.089,-0.094l-0.087,-0.095l-0.086,-0.096l-0.085,-0.096l-0.084,-0.098l-0.082,-0.099l-0.082,-0.1l-0.08,-0.101l-0.079,-0.102l-0.078,-0.103l-0.077,-0.104l-0.076,-0.105l-0.074,-0.106l-0.073,-0.106l-0.072,-0.108l-0.07,-0.109l-0.07,-0.109l-0.068,-0.11l-0.066,-0.112l-0.066,-0.112l-0.064,-0.113l-0.063,-0.114l-0.061,-0.114l-0.06,-0.116l-0.059,-0.116l-0.057,-0.117l-0.056,-0.118l-0.055,-0.119l-0.053,-0.12l-0.052,-0.12l-0.05,-0.121l-0.049,-0.122l-0.048,-0.122l-0.046,-0.124l-0.044,-0.124l-0.043,-0.124l-0.042,-0.126l-0.04,-0.126l-0.039,-0.126l-0.037,-0.128l-0.035,-0.128l-0.034,-0.128l-0.033,-0.13l-0.03,-0.13l-0.03,-0.13l-0.027,-0.131l-0.027,-0.132l-0.006,-0.032l-48.872,0Z" style="fill:#fff;"/></g></svg>