<?xml version="1.0" encoding="UTF-8" standalone="no"?><!DOCTYPE svg PUBLIC "-//W3C//DTD SVG 1.1//EN" "http://www.w3.org/Graphics/SVG/1.1/DTD/svg11.dtd"><svg width="100%" height="100%" viewBox="0 0 96 96" version="1.1" xmlns="http://www.w3.org/2000/svg" xmlns:xlink="http://www.w3.org/1999/xlink" xml:space="preserve" xmlns:serif="http://www.serif.com/" style="fill-rule:evenodd;clip-rule:evenodd;stroke-linecap:round;stroke-miterlimit:10;"><g><path d="M48,8.959l39.02,52.245l-39.02,25.796l-39.02,-25.796l39.02,-52.245Z" style="fill:none;stroke:#a10053;stroke-width:3px;"/><path d="M48,26.136c8.507,-19.958 25.523,-19.958 34.03,-11.876c8.508,8.082 8.508,24.247 0,40.411c-5.955,12.123 -21.269,24.247 -34.03,32.329c-12.762,-8.082 -28.075,-20.206 -34.031,-32.329c-8.507,-16.164 -8.507,-32.329 0,-40.411c8.508,-8.082 25.523,-8.082 34.031,11.876Z" style="fill:#fff;stroke:#a10053;stroke-width:3px;"/><path d="M48,26.447c7.94,-14.881 23.821,-14.881 31.762,-7.338c7.94,7.544 7.94,22.631 0,37.717c-5.559,11.315 -19.851,22.631 -31.762,30.174c-11.911,-7.543 -26.203,-18.859 -31.762,-30.174c-7.94,-15.086 -7.94,-30.173 0,-37.717c7.941,-7.543 23.821,-7.543 31.762,7.338Z" style="fill:#fff;stroke:#a10053;stroke-width:3px;"/></g></svg>