<?xml version="1.0" encoding="UTF-8" standalone="no"?><!DOCTYPE svg PUBLIC "-//W3C//DTD SVG 1.1//EN" "http://www.w3.org/Graphics/SVG/1.1/DTD/svg11.dtd"><svg width="100%" height="100%" viewBox="0 0 152 148" version="1.1" xmlns="http://www.w3.org/2000/svg" xmlns:xlink="http://www.w3.org/1999/xlink" xml:space="preserve" xmlns:serif="http://www.serif.com/" style="fill-rule:evenodd;clip-rule:evenodd;stroke-linecap:round;stroke-miterlimit:10;"><g><path d="M75.703,15.703l57.935,77.569l-57.935,38.301l-57.935,-38.301l57.935,-77.569Z" style="fill:none;stroke:#a10053;stroke-width:3.12px;"/><path d="M75.703,41.206c12.631,-29.633 37.895,-29.633 50.526,-17.633c12.632,12 12.632,36 0,60c-8.842,18 -31.579,36 -50.526,48c-18.947,-12 -41.684,-30 -50.526,-48c-12.632,-24 -12.632,-48 0,-60c12.631,-12 37.894,-12 50.526,17.633Z" style="fill:#fff;stroke:#a10053;stroke-width:3.12px;"/><path d="M75.703,41.667c11.789,-22.094 35.368,-22.094 47.158,-10.894c11.79,11.2 11.79,33.6 0,56c-8.253,16.8 -29.474,33.6 -47.158,44.8c-17.684,-11.2 -38.905,-28 -47.158,-44.8c-11.789,-22.4 -11.789,-44.8 0,-56c11.79,-11.2 35.368,-11.2 47.158,10.894Z" style="fill:#fff;stroke:#a10053;stroke-width:3.12px;"/></g></svg>